# xmcd
#
# Track frame offsets:
#	150
#	16021
#	33425
#	49413
#	74602
#	92681
#	108731
#	123883
#	146895
#	167599
#	190855
#
# Disc length: 2917 seconds
#
# Revision: 1
# Processed by: cddbd v1.4PL0 Copyright (c) Steve Scherf et al.
# Submitted via: EasyCDDAExtractor 5.0.6
#
DISCID=990b630b
DTITLE=Pitchin' Pennies - nickel 'n' dime
DYEAR=1900
DGENRE=Blues
TTITLE0=Howling at the Moon
TTITLE1=Livonia
TTITLE2=I'm on Fire
TTITLE3=Saddest Show in Town
TTITLE4=Earthquake
TTITLE5=You Don't Have to Go
TTITLE6=Diamond in the Rough
TTITLE7=Gimme a Dime
TTITLE8=I Want to Be Loved
TTITLE9=I'm Ready
TTITLE10=A World I Never Made
EXTD=
EXTT0=
EXTT1=
EXTT2=
EXTT3=
EXTT4=
EXTT5=
EXTT6=
EXTT7=
EXTT8=
EXTT9=
EXTT10=
PLAYORDER=
